<?xml version="1.0" encoding="UTF-8"?>
<!DOCTYPE svg PUBLIC "-//W3C//DTD SVG 1.1//EN" "http://www.w3.org/Graphics/SVG/1.1/DTD/svg11.dtd">
<!-- Creator: CorelDRAW 2017 -->
<svg xmlns="http://www.w3.org/2000/svg" xml:space="preserve" width="300px" height="39px" version="1.1" style="shape-rendering:geometricPrecision; text-rendering:geometricPrecision; image-rendering:optimizeQuality; fill-rule:evenodd; clip-rule:evenodd"
viewBox="0 0 155217 19927"
 xmlns:xlink="http://www.w3.org/1999/xlink">
 <defs>
  <style type="text/css">
   <![CDATA[
    .fil0 {fill:white}
    .fil1 {fill:white;fill-rule:nonzero}
   ]]>
  </style>
 </defs>
 <g id="Ebene_x0020_1">
  <metadata id="CorelCorpID_0Corel-Layer"/>
  <path class="fil0" d="M117431 0c-2105,2631 -3486,6125 -3486,10006 0,3722 1328,7173 3363,9766l123 155 -2455 0c-2105,-2459 -3464,-5758 -3464,-9921 0,-4126 1308,-7400 3345,-9865l119 -141 2455 0zm-15076 5763c2982,0 4942,1538 4942,4548l0 0 0 2373 -6749 0 0 615c0,967 610,1582 1785,1582 1198,0 1611,-527 1785,-1208l0 0 3157 0c-283,2658 -2112,3954 -4942,3954 -2938,0 -4941,-1516 -4941,-4548l0 0 0 -2768c0,-3010 1959,-4548 4963,-4548zm-86072 220c2743,0 4571,1428 4571,4196l0 0 0 2110 -7488 0 0 1208c0,1648 1045,2658 2939,2658 1828,0 2764,-922 2851,-2219l0 0 1676 0c-130,2351 -1806,3691 -4527,3691 -2830,0 -4615,-1494 -4615,-4240l0 0 0 -3208c0,-2768 1806,-4196 4593,-4196zm28429 0c2743,0 4572,1428 4572,4196l0 0 0 2110 -7489 0 0 1208c0,1648 1045,2658 2939,2658 1829,0 2765,-922 2852,-2219l0 0 1676 0c-131,2351 -1807,3691 -4528,3691 -2830,0 -4615,-1494 -4615,-4240l0 0 0 -3208c0,-2768 1807,-4196 4593,-4196zm20724 -4174c3657,0 6052,1889 6052,5580l0 0 0 132 -3375 0 0 -132c0,-1735 -1066,-2614 -2677,-2614 -1654,0 -2721,879 -2721,2614l0 0 0 4658c0,1736 1067,2614 2677,2614 1655,0 2721,-878 2721,-2614l0 0 0 -132 3375 0 0 132c0,3691 -2395,5580 -6096,5580 -3657,0 -6051,-1889 -6051,-5580l0 0 0 -4658c0,-3691 2394,-5580 6095,-5580zm12865 3954c2982,0 4941,1538 4941,4548l0 0 0 2768c0,3010 -1959,4548 -4963,4548 -2982,0 -4941,-1538 -4941,-4548l0 0 0 -2768c0,-3010 1959,-4548 4963,-4548zm16805 -4613l0 16258 -2394 0 -457 -1099c-697,879 -1764,1318 -3048,1318 -2438,0 -4005,-1538 -4005,-4548l0 0 0 -2768c0,-3010 1567,-4548 3983,-4548 1132,0 2068,330 2765,989l0 0 0 -5602 3156 0zm-93408 0l0 6239c740,-923 1894,-1406 3309,-1406 2547,0 4158,1472 4158,4196l0 0 0 3230c0,2724 -1611,4218 -4158,4218 -1524,0 -2743,-527 -3483,-1538l0 0 -218 1319 -1306 0 0 -15625 1698 -633zm24272 813l0 4240 3417 0 0 1472 -3417 0 0 5888c18,2174 591,2806 3417,2439l0 0 0 1406c-4397,747 -5115,-967 -5115,-4109l0 0 0 -5624 -2177 0 0 -1472 2177 0 0 -3735 1698 -505zm8598 0l0 4240 3418 0 0 1472 -3418 0 1 5888c18,2174 591,2806 3417,2439l0 0 0 1406c-4397,747 -5116,-967 -5116,-4109l0 -5624 -2177 0 0 -1472 2177 0 0 -3735 1698 -505zm19026 5646c979,-1318 2764,-1868 4441,-1472l0 0 0 1538c-2613,-484 -4289,593 -4289,2395l0 0 0 7338 -1698 0 0 -11205 1306 0 240 1406zm-48936 -154c-1806,0 -2960,989 -2960,2724l0 0 0 3230c0,1758 1154,2746 2939,2746 1763,0 2851,-944 2851,-2636l0 0 0 -3449c0,-1692 -1088,-2615 -2830,-2615zm73643 1055c-1088,0 -1807,505 -1807,1581l0 0 0 3208c0,1077 719,1582 1785,1582 1110,0 1807,-505 1807,-1582l0 0 0 -3208c0,-1076 -697,-1581 -1785,-1581zm11842 0c-1088,0 -1785,505 -1785,1581l0 0 0 3208c0,1077 697,1582 1807,1582 1066,0 1785,-505 1785,-1582l0 0 0 -3208c0,-1076 -719,-1581 -1807,-1581zm-73860 -1055c-1763,0 -2917,879 -2917,2615l0 0 0 856 5790 0 0 -856c0,-1736 -1132,-2615 -2873,-2615zm28429 0c-1763,0 -2917,879 -2917,2615l0 0 0 856 5791 0 0 -856c0,-1736 -1132,-2615 -2874,-2615zm57643 1055c-1088,0 -1807,505 -1807,1581l0 0 0 286 3592 0 0 -286c0,-1076 -696,-1581 -1785,-1581z"/>
  <path class="fil0" d="M151753 0c2104,2458 3464,5758 3464,9920 0,4105 -1309,7400 -3346,9865l-118 142 -2456 0c2105,-2653 3486,-6125 3486,-10007 0,-3721 -1327,-7173 -3363,-9765l-123 -155 2456 0z"/>
 </g>
 <g id="Ebene_x0020_1_0">
  <metadata id="CorelCorpID_1Corel-Layer"/>
  <path class="fil1" d="M118859 14155c337,0 595,94 777,284 184,189 275,427 275,713 0,280 -91,513 -275,698 -182,184 -440,278 -777,278 -321,0 -576,-91 -763,-273 -188,-182 -281,-417 -281,-703 0,-286 91,-524 273,-713 182,-190 440,-284 771,-284z"/>
  <polygon id="1" class="fil1" points="130711,16052 128834,16052 124026,8397 124026,16052 122152,16052 122152,5263 124026,5263 128849,12946 128849,5263 130711,5263 "/>
  <polygon id="2" class="fil1" points="139231,11242 134800,11242 134800,14550 139980,14550 139980,16052 132926,16052 132926,5263 139927,5263 139927,6781 134800,6781 134800,9755 139231,9755 "/>
  <polygon id="3" class="fil1" points="149448,6781 146085,6781 146085,16052 144223,16052 144223,6781 140890,6781 140890,5263 149448,5263 "/>
 </g>
</svg>
